<svg id="Layer_1" data-name="Layer 1" xmlns="http://www.w3.org/2000/svg" viewBox="0 0 54.56 54.56"><defs><style>.cls-1{fill:red;stroke:red;stroke-miterlimit:10;stroke-width:3px;}.cls-2{fill:#fff;}</style></defs><title>failure-icon2-01</title><circle class="cls-1" cx="27.28" cy="27.28" r="22"/><path class="cls-2" d="M26.09,36.78h2.32a2.44,2.44,0,0,1,1.75.72,2.31,2.31,0,0,1,.73,1.71v2.14a2.3,2.3,0,0,1-.71,1.72,2.34,2.34,0,0,1-1.72.71H26a2.37,2.37,0,0,1-1.72-.71,2.34,2.34,0,0,1-.71-1.72V39.27a2.49,2.49,0,0,1,.76-1.75A2.35,2.35,0,0,1,26.09,36.78ZM31,13.27,29.76,32.1A2.6,2.6,0,0,1,29,33.83a2.37,2.37,0,0,1-3.39,0,2.61,2.61,0,0,1-.74-1.7L23.66,13.21a2.12,2.12,0,0,1,.68-1.71,2.43,2.43,0,0,1,1.75-.72h2.43a2.34,2.34,0,0,1,1.75.77A2.21,2.21,0,0,1,31,13.27Z"/></svg>